<?xml version="1.0" standalone="no"?>
<!DOCTYPE svg PUBLIC "-//W3C//DTD SVG 20010904//EN"
 "http://www.w3.org/TR/2001/REC-SVG-20010904/DTD/svg10.dtd">
<svg version="1.0" xmlns="http://www.w3.org/2000/svg"
 width="960.000000pt" height="519.000000pt" viewBox="0 0 960.000000 519.000000"
 preserveAspectRatio="xMidYMid meet">

<g transform="translate(0.000000,519.000000) scale(0.100000,-0.100000)"
fill="#F07167" stroke="none">
<path d="M85 5172 c-47 -29 -55 -45 -70 -129 -29 -162 -13 -345 46 -506 56
-158 129 -264 440 -648 144 -178 516 -714 571 -824 23 -45 26 -64 30 -200 6
-184 21 -231 106 -328 32 -35 75 -98 97 -138 22 -40 55 -90 73 -112 67 -81 36
-140 -99 -191 -100 -38 -201 -98 -315 -190 -87 -70 -135 -123 -201 -221 -53
-79 -58 -97 -34 -119 26 -24 76 -38 349 -96 272 -59 593 -136 638 -155 52 -22
104 -75 177 -185 97 -145 152 -210 270 -318 781 -715 1816 -972 2862 -710 380
95 788 284 1129 523 345 241 669 573 900 923 170 256 266 454 398 812 132 362
208 492 386 662 210 202 468 321 807 372 154 23 217 27 540 35 275 7 304 9
347 29 84 37 88 96 12 169 -37 36 -61 48 -156 77 -62 20 -194 54 -293 77 -394
90 -530 161 -700 369 -215 263 -676 497 -1150 585 -664 122 -1293 -23 -1838
-423 -73 -53 -105 -69 -180 -92 -51 -15 -144 -45 -208 -67 -63 -23 -173 -53
-244 -68 -233 -49 -676 -180 -1738 -514 -263 -83 -511 -157 -552 -166 -174
-36 -329 -10 -474 80 -176 108 -265 191 -1079 997 -462 457 -687 673 -716 687
-52 26 -92 26 -131 3z"/>
</g>
</svg>
