<?xml version="1.0" standalone="no"?>
<!DOCTYPE svg PUBLIC "-//W3C//DTD SVG 20010904//EN"
 "http://www.w3.org/TR/2001/REC-SVG-20010904/DTD/svg10.dtd">
<svg version="1.0" xmlns="http://www.w3.org/2000/svg"
 width="1733.000000pt" height="621.000000pt" viewBox="0 0 1733.000000 621.000000"
 preserveAspectRatio="xMidYMid meet">

<g transform="translate(0.000000,621.000000) scale(0.100000,-0.100000)"
fill="#0081A7" stroke="none">
<path d="M10005 6194 c-99 -9 -298 -46 -373 -70 -241 -79 -414 -220 -511 -418
-116 -237 -99 -531 43 -723 160 -217 407 -346 896 -468 321 -80 410 -114 483
-181 171 -159 73 -409 -181 -463 -168 -35 -357 14 -469 121 -45 44 -98 150
-118 238 -9 41 -19 81 -21 88 -2 7 -20 12 -41 12 -43 0 -628 -37 -720 -46
l-62 -5 6 -37 c30 -224 104 -405 231 -563 185 -231 431 -330 897 -360 383 -24
717 34 944 163 83 48 198 145 254 215 28 34 51 62 53 60 1 -1 10 -42 19 -92
117 -600 608 -1038 1253 -1116 l101 -12 -55 -60 c-244 -264 -355 -590 -355
-1047 0 -413 94 -716 302 -974 194 -242 459 -382 835 -440 158 -25 520 -22
672 5 444 78 758 308 940 686 l47 98 3 -382 2 -383 1105 0 1105 0 0 340 0 340
-675 0 -675 0 0 1055 0 1055 -430 0 -430 0 -2 -382 -3 -383 -47 98 c-123 255
-304 441 -543 558 -151 73 -275 109 -498 144 l-39 6 89 61 c330 225 592 521
762 864 74 149 134 320 168 484 24 112 27 147 28 330 0 280 -29 417 -140 646
-134 276 -353 490 -645 628 -428 202 -951 206 -1458 10 -459 -177 -845 -487
-1115 -894 -66 -99 -161 -280 -200 -380 l-18 -45 -40 76 c-73 140 -189 246
-367 338 -163 83 -371 147 -832 255 -234 55 -322 107 -337 200 -10 63 5 105
57 157 66 66 125 83 274 77 93 -3 120 -8 168 -30 107 -49 179 -140 209 -264 6
-27 14 -52 18 -55 3 -4 182 4 396 17 215 13 395 23 401 24 8 0 8 17 2 58 -16
103 -48 206 -95 302 -40 79 -62 109 -138 185 -72 73 -108 100 -181 138 -197
101 -374 137 -689 142 -115 1 -232 1 -260 -1z m3708 -229 c307 -40 573 -154
779 -331 77 -66 283 -340 324 -431 93 -203 129 -398 121 -648 -9 -264 -59
-461 -181 -710 -385 -786 -1250 -1305 -2073 -1244 -228 17 -419 69 -604 165
-380 198 -628 544 -695 971 -22 144 -15 415 15 553 72 335 230 640 483 931 63
73 610 490 709 539 203 103 503 189 739 213 92 10 280 6 383 -8z m176 -3759
c92 -25 162 -66 231 -135 109 -111 160 -245 180 -480 13 -150 -1 -387 -30
-509 -57 -238 -188 -379 -397 -428 -93 -22 -275 -14 -357 15 -122 43 -228 137
-286 251 -114 226 -127 720 -26 968 66 163 212 290 379 328 74 16 225 12 306
-10z"/>
<path d="M13454 5286 c-179 -41 -422 -224 -496 -374 -29 -59 -33 -76 -33 -152
0 -73 4 -93 28 -142 36 -73 109 -139 177 -161 109 -35 233 -17 480 72 156 56
216 54 253 -9 34 -57 17 -122 -49 -180 -47 -41 -92 -60 -141 -60 -43 0 -117
31 -150 62 -12 11 -28 18 -35 15 -7 -3 -70 -51 -141 -107 -146 -117 -145 -112
-46 -185 105 -77 218 -107 325 -85 195 40 461 236 536 396 93 199 22 426 -160
516 -61 30 -74 33 -152 32 -99 -2 -190 -26 -384 -104 -142 -56 -182 -61 -214
-27 -44 47 -19 118 58 172 36 25 53 30 100 30 53 0 66 -5 125 -49 7 -6 58 28
149 100 l138 109 -49 44 c-91 83 -201 113 -319 87z"/>
<path d="M12455 4617 c-72 -51 -141 -99 -154 -109 l-23 -16 223 -314 c251
-352 266 -377 275 -439 5 -39 3 -49 -20 -76 -62 -74 -146 -60 -222 38 l-20 27
-130 -120 c-71 -65 -130 -122 -132 -127 -4 -11 74 -87 126 -123 99 -68 229
-87 339 -48 85 30 198 98 268 162 72 66 126 161 145 252 29 142 -15 235 -311
658 -117 167 -217 308 -223 315 -8 8 -44 -12 -141 -80z"/>
<path d="M210 4755 l0 -1395 430 0 430 0 0 571 0 572 78 -6 c93 -7 180 -37
227 -78 55 -49 96 -118 353 -594 l247 -460 488 -3 c268 -1 487 1 487 4 0 12
-394 770 -433 834 -50 81 -139 191 -204 252 -50 46 -134 94 -206 118 -47 15
-41 22 43 44 91 24 234 96 305 153 116 94 202 226 246 378 20 68 24 102 24
230 0 172 -13 232 -75 360 -52 108 -131 201 -224 263 -90 60 -153 85 -283 111
-176 36 -315 41 -1135 41 l-798 0 0 -1395z m1370 825 c146 -19 212 -57 255
-146 29 -58 32 -170 8 -225 -65 -146 -163 -180 -540 -187 l-233 -4 0 286 0
286 218 0 c119 0 251 -5 292 -10z"/>
<path d="M1085 2870 c-356 -30 -592 -124 -758 -299 -148 -157 -216 -344 -205
-565 9 -175 68 -305 198 -437 170 -173 370 -263 846 -384 307 -77 390 -110
461 -181 116 -115 104 -280 -26 -384 -64 -50 -132 -72 -244 -78 -166 -8 -281
30 -377 127 -65 65 -103 139 -130 253 -10 44 -22 83 -25 86 -6 6 -803 -43
-809 -49 -7 -7 14 -133 34 -210 82 -319 293 -562 572 -661 198 -70 337 -88
678 -88 262 0 287 2 401 26 225 47 389 120 515 227 78 66 157 156 195 224 17
29 34 53 38 53 4 0 28 -28 53 -63 62 -84 196 -211 285 -270 87 -58 150 -86
279 -126 175 -54 246 -63 539 -68 247 -4 280 -3 385 17 63 12 148 32 188 46
307 102 538 330 674 667 31 78 68 211 60 219 -4 3 -165 54 -357 112 -193 58
-358 108 -367 111 -14 6 -20 -4 -33 -52 -59 -210 -164 -371 -284 -432 -97 -50
-296 -67 -416 -36 -260 68 -368 269 -382 715 -12 354 38 554 175 701 92 100
196 150 337 164 218 21 413 -86 505 -276 22 -46 40 -89 40 -96 0 -7 8 -13 18
-13 10 0 157 31 328 69 170 38 334 74 365 80 l57 12 -28 73 c-103 268 -263
478 -459 604 -221 142 -574 210 -945 182 -302 -23 -526 -94 -730 -231 -95 -65
-225 -193 -286 -283 -44 -65 -60 -79 -60 -52 0 8 -21 56 -47 107 -38 77 -63
110 -137 185 -78 78 -105 98 -194 142 -122 61 -198 85 -357 112 -137 23 -416
33 -570 20z m320 -540 c110 -42 188 -141 225 -287 6 -24 16 -43 23 -43 7 0
152 9 322 19 171 11 311 18 312 17 2 -1 -8 -45 -21 -97 -21 -84 -33 -151 -52
-307 l-5 -42 -42 26 c-134 83 -372 168 -682 243 -443 108 -469 116 -525 173
-102 102 -30 267 137 314 73 21 233 12 308 -16z"/>
<path d="M9673 2865 c-476 -62 -825 -292 -1020 -674 l-43 -85 0 362 0 362
-435 0 -435 0 0 -490 0 -490 -472 2 -473 3 -3 488 -2 487 -425 0 -425 0 0
-1395 0 -1395 425 0 425 0 0 565 0 565 475 0 475 0 0 -565 0 -565 435 0 435 0
0 362 0 362 40 -78 c120 -235 306 -423 530 -536 217 -109 432 -150 789 -150
206 0 243 3 358 26 295 58 500 160 679 338 191 191 303 426 354 743 33 201 30
520 -6 713 -88 480 -388 832 -829 974 -246 79 -576 106 -852 71z m437 -661
c177 -52 306 -180 364 -359 47 -148 62 -465 31 -669 -54 -359 -239 -535 -562
-536 -116 0 -179 13 -270 56 -141 67 -235 195 -282 384 -66 262 -44 665 46
844 75 150 206 255 364 291 79 18 230 13 309 -11z"/>
</g>
</svg>
